<?xml version="1.0" encoding="utf-8"?><svg viewBox="0 0 19 19" xmlns="http://www.w3.org/2000/svg" xmlns:xlink="http://www.w3.org/1999/xlink"><style>:root>svg{display:none}:root>svg:target{display:block}</style><svg viewBox="0 0 16 16" id="arrow-icon" xmlns="http://www.w3.org/2000/svg"><path fill-rule="evenodd" clip-rule="evenodd" d="m3.345 8.833 5.244 5.244-1.178 1.179L.155 8 7.41.744l1.178 1.179-5.244 5.244H15.5v1.666H3.345Z"/></svg><svg viewBox="0 0 7 12" id="check-icon" xmlns="http://www.w3.org/2000/svg"><path fill-rule="evenodd" clip-rule="evenodd" d="M.254 1.746 1.08.92 6.16 6l-5.08 5.08-.825-.826L4.508 6 .254 1.746Z"/></svg><svg viewBox="0 0 15 15" id="circle-icon" xmlns="http://www.w3.org/2000/svg"><path fill-rule="evenodd" clip-rule="evenodd" d="M1 7.5C1 3.916 3.916 1 7.5 1S14 3.916 14 7.5 11.084 14 7.5 14A6.507 6.507 0 0 1 1 7.5Zm.852 0A5.654 5.654 0 0 0 7.5 13.148 5.654 5.654 0 0 0 13.147 7.5 5.654 5.654 0 0 0 7.5 1.853 5.654 5.654 0 0 0 1.852 7.5Z"/><path d="M13.147 7.5h-.25.25ZM7.5.75A6.757 6.757 0 0 0 .75 7.5h.5A6.257 6.257 0 0 1 7.5 1.25v-.5Zm6.75 6.75A6.757 6.757 0 0 0 7.5.75v.5a6.257 6.257 0 0 1 6.25 6.25h.5ZM7.5 14.25a6.757 6.757 0 0 0 6.75-6.75h-.5a6.257 6.257 0 0 1-6.25 6.25v.5ZM.75 7.5a6.757 6.757 0 0 0 6.75 6.75v-.5A6.257 6.257 0 0 1 1.25 7.5h-.5Zm6.75 5.398A5.404 5.404 0 0 1 2.102 7.5h-.5A5.904 5.904 0 0 0 7.5 13.398v-.5ZM12.897 7.5A5.404 5.404 0 0 1 7.5 12.898v.5A5.904 5.904 0 0 0 13.397 7.5h-.5ZM7.5 2.103A5.404 5.404 0 0 1 12.897 7.5h.5A5.904 5.904 0 0 0 7.5 1.603v.5ZM2.102 7.5A5.404 5.404 0 0 1 7.5 2.103v-.5A5.904 5.904 0 0 0 1.602 7.5h.5ZM9.292 5.139 6.028 8.858l-1.32-1.503a.38.38 0 0 0-.586 0 .52.52 0 0 0 0 .669l1.612 1.838a.39.39 0 0 0 .294.138.39.39 0 0 0 .293-.139h.001l3.556-4.054a.52.52 0 0 0 0-.668.38.38 0 0 0-.586 0Z"/></svg><svg viewBox="0 0 16 12" id="email-icon" xmlns="http://www.w3.org/2000/svg"><path fill-rule="evenodd" clip-rule="evenodd" d="M14.953.252 8 6.336 1.047.252C1.332.096 1.653 0 2 0h12c.347 0 .668.096.953.252Zm.79 10.71c.158-.286.257-.611.257-.962V2c0-.391-.117-.754-.312-1.062L10.691 5.31l5.052 5.652ZM9.94 5.968l-1.61 1.409a.5.5 0 0 1-.658 0l-1.61-1.41-5.116 5.725c.307.193.666.308 1.055.308h12c.389 0 .748-.115 1.055-.308L9.939 5.968ZM0 2c0-.392.117-.754.312-1.062l4.996 4.37-5.051 5.654A1.976 1.976 0 0 1 0 10V2Z"/></svg><svg viewBox="0 0 16 16" id="phone-icon" xmlns="http://www.w3.org/2000/svg"><path d="m15.641 12.655-2.47-2.477c-.493-.49-1.308-.476-1.817.035l-1.245 1.247-.246-.137c-.786-.436-1.862-1.035-2.994-2.17-1.136-1.138-1.733-2.218-2.17-3.007-.046-.083-.09-.164-.134-.24l.836-.837.41-.412c.51-.511.524-1.328.033-1.82L3.374.358c-.491-.492-1.307-.477-1.817.035l-.696.702.019.019a4.039 4.039 0 0 0-.574 1.014C.172 2.483.089 2.82.05 3.158c-.326 2.711.91 5.189 4.265 8.55 4.637 4.648 8.373 4.297 8.535 4.28a4.164 4.164 0 0 0 1.03-.26c.366-.143.71-.339 1.008-.572l.015.013.705-.692c.51-.511.524-1.328.033-1.822Z"/></svg><svg viewBox="0 0 16 14" id="telegram-icon" xmlns="http://www.w3.org/2000/svg"><path fill-rule="evenodd" clip-rule="evenodd" d="M3.97 8.096.282 6.713a.438.438 0 0 1-.005-.817L15.408.03a.435.435 0 0 1 .583.496l-2.716 13.126a.434.434 0 0 1-.68.264l-3.707-2.704a.61.61 0 0 0-.747.02l-2.055 1.684a.433.433 0 0 1-.69-.208L3.97 8.096ZM12.8 3.02 5.356 7.378a.697.697 0 0 0-.327.801l.805 2.688c.057.19.348.171.375-.026l.21-1.474c.04-.277.178-.533.394-.724l6.144-5.428c.115-.101-.023-.273-.157-.195Z"/></svg><svg viewBox="0 0 19 19" id="viber-icon" xmlns="http://www.w3.org/2000/svg"><path d="M17.079 2.126C15.499.653 12.945-.06 9.487.004 6 .069 3.668.651 2.15 1.835.683 2.98 0 4.655 0 7.108v2.503c0 2.895 1.632 6.077 4.75 6.56.36.055.7-.178.758-.52.058-.342-.186-.665-.546-.72-2.365-.366-3.641-3.014-3.641-5.32V7.108c0-3.516 1.37-5.721 8.192-5.849 3.092-.058 5.324.536 6.641 1.763 1.026.957 1.525 2.293 1.525 4.086v2.503c0 3.79-1.789 5.461-6.378 5.953H8.047a.678.678 0 0 0-.467.184l-2.293 2.18a.606.606 0 0 0 0 .888.676.676 0 0 0 .467.184.676.676 0 0 0 .467-.184l2.1-1.996h3.017a.683.683 0 0 0 .073-.004c2.626-.277 4.425-.927 5.66-2.045C18.368 13.595 19 11.907 19 9.611V7.108c0-2.118-.646-3.794-1.921-4.982Z"/><path d="M9.749 3.93c1.13 0 2.192.42 2.99 1.182a3.92 3.92 0 0 1 1.24 2.855c0 .37.314.67.7.67.388 0 .702-.3.702-.67 0-1.436-.586-2.786-1.65-3.801A5.732 5.732 0 0 0 9.75 2.59c-.388 0-.701.3-.701.67 0 .369.314.668.7.668Z"/><path d="M9.704 6.434c.91 0 1.65.707 1.65 1.576 0 .346.294.626.657.626.362 0 .656-.28.656-.626 0-1.56-1.33-2.828-2.963-2.828-.363 0-.656.28-.656.626s.293.626.656.626ZM6.79 7.213a.604.604 0 0 0-.17.863.67.67 0 0 0 .904.162c.233-.152.78-.509.741-1.222-.024-.426-.427-1.035-.761-1.47-.488-.639-.91-1.023-1.248-1.142a1.506 1.506 0 0 0-.985-.007c-.698.225-1.205.63-1.466 1.174-.254.529-.248 1.136.017 1.757a11.586 11.586 0 0 0 2.606 3.814c1.114 1.05 2.457 1.886 3.99 2.483.332.129.66.193.976.193.303 0 .594-.06.865-.178.57-.249.994-.732 1.23-1.4.112-.32.11-.636-.007-.937-.126-.326-.528-.727-1.196-1.193-.457-.319-1.095-.704-1.543-.727-.745-.036-1.118.485-1.278.708a.604.604 0 0 0 .17.863.67.67 0 0 0 .904-.162.984.984 0 0 1 .134-.164c.366.112 1.407.842 1.594 1.122.005.018.006.045-.012.095-.082.232-.242.537-.538.666-.277.122-.593.047-.808-.036-1.374-.535-2.574-1.28-3.561-2.211A10.344 10.344 0 0 1 5.027 6.86c-.088-.206-.166-.507-.039-.772.136-.282.455-.435.698-.513a.185.185 0 0 1 .1-.011c.293.179 1.058 1.172 1.175 1.52-.02.023-.068.061-.171.129Z"/></svg><svg viewBox="0 0 18 18" id="whatsapp-icon" xmlns="http://www.w3.org/2000/svg"><path fill-rule="evenodd" clip-rule="evenodd" d="M18 8.768c0 4.843-3.956 8.768-8.836 8.768a8.851 8.851 0 0 1-4.272-1.09L0 18l1.595-4.704A8.676 8.676 0 0 1 .327 8.768C.327 3.926 4.283 0 9.164 0 14.044 0 18 3.926 18 8.768ZM9.164 1.396c-4.097 0-7.43 3.307-7.43 7.372 0 1.613.526 3.107 1.416 4.322l-.929 2.738 2.855-.907a7.424 7.424 0 0 0 4.088 1.219c4.096 0 7.429-3.307 7.429-7.371 0-4.065-3.333-7.373-7.43-7.373Zm4.164 9.198c.151.072.254.122.298.194.054.09.054.52-.126 1.022-.182.501-1.066.985-1.463 1.021-.068.006-.124.02-.182.034-.28.067-.592.142-2.417-.571-2.035-.795-3.376-2.77-3.654-3.177l-.046-.068c-.11-.145-.885-1.166-.885-2.222 0-.99.49-1.508.716-1.747l.042-.046a.8.8 0 0 1 .578-.269c.075 0 .15.005.221.01a3.085 3.085 0 0 0 .242.006c.122-.008.28-.018.44.36l.23.556c.189.456.4.967.437 1.04.055.108.091.233.018.377l-.029.059a1.212 1.212 0 0 1-.187.3 8.56 8.56 0 0 0-.11.13c-.075.09-.15.181-.215.246-.108.107-.221.223-.095.438s.561.919 1.205 1.488c.693.613 1.294.872 1.599 1.003.06.026.107.046.143.064.216.107.343.09.469-.054.127-.144.542-.628.686-.843.144-.215.289-.179.488-.107.198.071 1.263.591 1.48.699l.117.057Z"/></svg></svg>